#!OML:ASF F:\VICON\USERDATA\INSTALL\rory3\rory3.ASF
:FULLY-SPECIFIED
:DEGREES
383
root 1.21915 17.6764 10.1271 -179.472 -4.84013 176.632
lowerback 13.4158 1.04789 -1.15985
upperback 0.142282 1.20073 0.994396
thorax -7.43481 0.607619 1.48107
lowerneck -21.8036 -3.33283 -11.138
upperneck 29.9699 -4.56544 7.649
head 14.3864 -2.63867 4.07285
rclavicle -1.45113e-014 -4.77083e-015
rhumerus -34.35 -21.5578 -68.7313
rradius 35.2413
rwrist 4.26553
rhand -15.8301 11.6451
rfingers 7.12502
rthumb 10.364 -18.0795
lclavicle -1.45113e-014 -4.77083e-015
lhumerus -34.3251 9.97469 78.4841
lradius 32.8079
lwrist -5.93083
lhand -23.6941 23.083
lfingers 7.12502
lthumb 2.77277 53.0447
rfemur -7.63971 11.3329 -1.53789
rtibia 30.3128
rfoot -7.23476 -6.06493
rtoes 4.60904
lfemur -2.14061 -6.44971 -15.9497
ltibia 17.0904
lfoot -14.0414 -9.49905
ltoes -8.82689
384
root 1.12324 17.687 10.1448 -179.446 -4.42728 176.521
lowerback 13.3209 1.08469 -1.35935
upperback 0.238175 1.212 0.942812
thorax -7.28233 0.616177 1.53865
lowerneck -22.109 -3.37185 -11.1291
upperneck 29.9991 -4.58356 7.67656
head 14.4694 -2.63069 4.08165
rclavicle -3.48867e-014 2.38542e-015
rhumerus -34.3927 -21.5671 -69.0938
rradius 35.2908
rwrist 4.54593
rhand -15.6506 11.9622
rfingers 7.12502
rthumb 10.5372 -17.7537
lclavicle -3.48867e-014 2.38542e-015
lhumerus -34.1904 9.90657 78.332
lradius 32.8952
lwrist -5.72798
lhand -21.5501 22.1112
lfingers 7.12502
lthumb 4.84315 52.0359
rfemur -8.25504 10.9097 -1.4815
rtibia 31.1697
rfoot -8.3635 -6.99606
rtoes 3.34411
lfemur -1.98038 -6.22419 -16.4281
ltibia 16.8771
lfoot -14.0596 -9.42519
ltoes -8.39397
385
root 1.02893 17.6974 10.1638 -179.455 -4.05793 176.475
lowerback 13.3259 1.0816 -1.51323
upperback 0.259101 1.18246 0.937328
thorax -7.26487 0.606282 1.6258
lowerneck -22.2397 -3.35853 -11.317
upperneck 30.019 -4.54362 7.87977
head 14.513 -2.60546 4.20862
rclavicle -1.48095e-014 -1.51076e-014
rhumerus -34.4629 -21.3733 -69.424
rradius 35.1982
rwrist 4.75818
rhand -15.5469 11.445
rfingers 7.12502
rthumb 10.6372 -18.2657
lclavicle -1.48095e-014 -1.51076e-014
lhumerus -34.1741 9.93107 78.102
lradius 32.8344
lwrist -5.78868
lhand -23.8378 22.9274
lfingers 7.12502
lthumb 2.63405 52.8909
rfemur -8.80268 10.375 -1.30316
rtibia 32.0035
rfoot -10.0404 -7.55566
rtoes 1.88336
lfemur -1.80428 -5.97075 -16.8226
ltibia 16.6411
lfoot -14.0626 -9.43478
ltoes -8.41406
386
root 0.93847 17.7137 10.1785 -179.487 -3.74254 176.476
lowerback 13.3674 1.07116 -1.65067
upperback 0.233489 1.14883 0.953343
thorax -7.31761 0.595984 1.72662
lowerneck -22.2344 -3.33152 -11.4564
upperneck 30.0589 -4.51485 8.0232
head 14.5336 -2.59563 4.29956
rclavicle 2.22639e-014 3.26007e-014
rhumerus -34.5311 -21.2851 -69.6589
rradius 34.8522
rwrist 5.15116
rhand -15.112 10.0776
rfingers 7.12502
rthumb 11.0567 -19.6112
lclavicle 2.22639e-014 3.26007e-014
lhumerus -34.2355 9.78177 77.9349
lradius 32.85
lwrist -5.62548
lhand -23.1803 22.9276
lfingers 7.12502
lthumb 3.26898 52.8823
rfemur -9.28904 9.7735 -1.01077
rtibia 32.8115
rfoot -11.1766 -7.76432
rtoes 2.62233
lfemur -1.6295 -5.84104 -17.1606
ltibia 16.4072
lfoot -13.9083 -9.41278
ltoes -8.43503
387
root 0.853548 17.731 10.1909 -179.461 -3.54459 176.452
lowerback 13.3713 1.04467 -1.83873
upperback 0.154496 1.09005 0.96773
thorax -7.40604 0.5778 1.85941
lowerneck -22.1286 -3.27785 -11.4653
upperneck 30.0693 -4.44714 7.9895
head 14.5049 -2.57957 4.29889
rclavicle -7.95139e-016 1.59028e-015
rhumerus -34.7121 -21.1673 -69.8386
rradius 34.5731
rwrist 5.55384
rhand -14.7672 9.51878
rfingers 7.12502
rthumb 11.3893 -20.1519
lclavicle -7.95139e-016 1.59028e-015
lhumerus -34.5108 9.097 77.9654
lradius 33.2067
lwrist -4.80363
lhand -19.9353 20.8703
lfingers 7.12502
lthumb 6.40229 50.7535
rfemur -9.7679 9.09838 -0.67893
rtibia 33.6665
rfoot -12.105 -7.71043
rtoes 3.79982
lfemur -1.51469 -5.82271 -17.4868
ltibia 16.1271
lfoot -13.6269 -9.55997
ltoes -7.12107
388
root 0.770851 17.7494 10.2009 -179.467 -3.42831 176.452
lowerback 13.3335 0.989215 -1.9714
upperback 0.111071 0.99824 0.952474
thorax -7.42913 0.539634 1.93643
lowerneck -21.9318 -3.2343 -11.397
upperneck 29.9612 -4.43133 7.98543
head 14.4092 -2.56868 4.28346
rclavicle 3.37934e-015 4.77083e-015
rhumerus -34.8807 -21.1535 -70.0883
rradius 34.3382
rwrist 6.14566
rhand -14.6198 9.50756
rfingers 7.12502
rthumb 11.5315 -20.1552
lclavicle 3.37934e-015 4.77083e-015
lhumerus -34.6976 8.59831 77.8751
lradius 33.502
lwrist -4.26876
lhand -23.1942 22.273
lfingers 7.12502
lthumb 3.25557 52.2278
rfemur -10.1731 8.34204 -0.238801
rtibia 34.5535
rfoot -13.071 -7.53866
rtoes 4.02852
lfemur -1.38241 -5.87731 -17.7883
ltibia 15.8268
lfoot -13.2895 -9.6356
ltoes -5.97611
389
root 0.689927 17.751 10.2139 -179.462 -3.27909 176.429
lowerback 13.2519 0.945021 -2.10461
upperback 0.126316 0.919004 0.929317
thorax -7.36477 0.504791 2.00339
lowerneck -21.9061 -3.24971 -11.3653
upperneck 29.8756 -4.45207 7.96813
head 14.3671 -2.57257 4.2639
rclavicle -1.11319e-014 -3.4191e-014
rhumerus -34.8907 -20.9654 -70.4721
rradius 34.1519
rwrist 6.52739
rhand -14.5595 9.33733
rfingers 7.12502
rthumb 11.5895 -20.3222
lclavicle -1.11319e-014 -3.4191e-014
lhumerus -34.6195 8.42498 77.7214
lradius 33.6027
lwrist -3.97284
lhand -22.6577 22.6089
lfingers 7.12502
lthumb 3.77362 52.5552
rfemur -10.6878 7.55145 0.18594
rtibia 35.4935
rfoot -14.06 -7.24444
rtoes 3.33303
lfemur -1.18034 -5.69373 -18.1396
ltibia 15.5869
lfoot -13.4871 -9.25678
ltoes -10.5969
390
root 0.612065 17.7568 10.2317 -179.495 -3.02331 176.5
lowerback 13.3054 0.941719 -2.23278
upperback 0.134107 0.897386 0.999205
thorax -7.389 0.499712 2.15439
lowerneck -21.951 -3.27113 -11.4108
upperneck 29.8238 -4.42938 7.91693
head 14.3515 -2.56983 4.25333
rclavicle 1.98785e-016 -2.54444e-014
rhumerus -34.9424 -20.6199 -70.7582
rradius 34.0233
rwrist 6.89921
rhand -14.4253 9.78285
rfingers 7.12502
rthumb 11.719 -19.8694
lclavicle 1.98785e-016 -2.54444e-014
lhumerus -34.5572 8.24863 77.6716
lradius 33.703
lwrist -3.75621
lhand -21.5364 22.879
lfingers 7.12502
lthumb 4.85641 52.8033
rfemur -11.2223 6.87479 0.769356
rtibia 36.432
rfoot -14.8671 -6.83383
rtoes 2.43395
lfemur -1.0372 -5.54613 -18.355
ltibia 15.4704
lfoot -13.5527 -9.03446
ltoes -12.6715
391
root 0.539001 17.7641 10.2485 -179.52 -2.77803 176.69
lowerback 13.3969 0.942583 -2.28295
upperback 0.100873 0.897433 1.11977
thorax -7.47937 0.505158 2.31074
lowerneck -22.0572 -3.27494 -11.5374
upperneck 29.9039 -4.38647 7.92989
head 14.4087 -2.56631 4.29152
rclavicle -7.55382e-015 7.95139e-016
rhumerus -35.104 -20.3154 -70.9576
rradius 34.0035
rwrist 7.20284
rhand -14.1743 10.1413
rfingers 7.12502
rthumb 11.9611 -19.497
lclavicle -7.55382e-015 7.95139e-016
lhumerus -34.6687 7.95259 77.6725
lradius 33.9507
lwrist -3.53446
lhand -21.6128 23.1687
lfingers 7.12502
lthumb 4.78268 53.0947
rfemur -11.7183 6.27327 1.54428
rtibia 37.3625
rfoot -15.5454 -6.31866
rtoes 1.78893
lfemur -1.04296 -5.40025 -18.4147
ltibia 15.4615
lfoot -13.6548 -8.98309
ltoes -12.2141
392
root 0.466882 17.7683 10.2596 -179.567 -2.62722 176.876
lowerback 13.4407 0.911528 -2.25687
upperback 0.0892133 0.862237 1.16789
thorax -7.51491 0.488308 2.35405
lowerneck -22.2155 -3.26074 -11.4535
upperneck 30.06 -4.37098 7.84366
head 14.5056 -2.56712 4.24841
rclavicle 5.56597e-015 -4.05521e-014
rhumerus -35.2694 -20.4169 -71.109
rradius 33.863
rwrist 7.94901
rhand -13.7849 9.93643
rfingers 7.12502
rthumb 12.3365 -19.6796
lclavicle 5.56597e-015 -4.05521e-014
lhumerus -34.7288 7.68935 77.5333
lradius 34.1129
lwrist -3.35103
lhand -21.7715 23.1026
lfingers 7.12502
lthumb 4.62942 53.032
rfemur -12.0585 5.53487 2.35064
rtibia 38.2022
rfoot -16.3297 -5.57704
rtoes 0.401803
lfemur -1.09463 -5.31193 -18.4807
ltibia 15.6015
lfoot -13.7449 -8.98692
ltoes -11.3927
393
root 0.397086 17.7712 10.2734 -179.605 -2.48899 176.97
lowerback 13.4408 0.879773 -2.32602
upperback 0.123713 0.808887 1.19398
thorax -7.47633 0.463539 2.43179
lowerneck -22.26 -3.25367 -11.3688
upperneck 29.9723 -4.35058 7.79522
head 14.4702 -2.54722 4.21503
rclavicle 5.86415e-015 1.90833e-014
rhumerus -35.3445 -20.573 -71.2544
rradius 33.7222
rwrist 8.87057
rhand -13.3445 9.77219
rfingers 7.12502
rthumb 12.7611 -19.8178
lclavicle 5.86415e-015 1.90833e-014
lhumerus -34.602 7.667 77.3486
lradius 34.1075
lwrist -3.28694
lhand -22.4453 24.0734
lfingers 7.12502
lthumb 3.97873 54.016
rfemur -12.4124 4.77674 3.08923
rtibia 38.9934
rfoot -17.1563 -4.67425
rtoes -1.23054
lfemur -1.18651 -5.30045 -18.6417
ltibia 15.8411
lfoot -13.812 -8.8908
ltoes -11.2013
394
root 0.329219 17.7803 10.2858 -179.636 -2.30803 177.089
lowerback 13.4289 0.875804 -2.35953
upperback 0.186046 0.797445 1.23066
thorax -7.40323 0.456461 2.49236
lowerneck -22.3087 -3.30216 -11.4145
upperneck 29.771 -4.37047 7.84597
head 14.3976 -2.53726 4.2357
rclavicle -8.05078e-015 1.43125e-014
rhumerus -35.3652 -20.6824 -71.4236
rradius 33.6521
rwrist 9.54824
rhand -12.9683 9.68017
rfingers 7.12502
rthumb 13.1237 -19.8869
lclavicle -8.05078e-015 1.43125e-014
lhumerus -34.3753 7.82197 77.1557
lradius 34.0711
lwrist -3.32667
lhand -22.922 24.9123
lfingers 7.12502
lthumb 3.51841 54.863
rfemur -12.7816 4.10203 3.88983
rtibia 39.7573
rfoot -17.9082 -3.67737
rtoes -2.43209
lfemur -1.30283 -5.24747 -18.7651
ltibia 16.1879
lfoot -13.8996 -8.73939
ltoes -11.105
395
root 0.264359 17.7858 10.2954 -179.66 -2.18489 177.132
lowerback 13.4106 0.860995 -2.46592
upperback 0.210738 0.760873 1.23627
thorax -7.3659 0.441276 2.56603
lowerneck -22.2959 -3.29679 -11.4019
upperneck 29.6644 -4.35279 7.85663
head 14.3455 -2.52016 4.23841
rclavicle 1.42131e-014 1.59028e-014
rhumerus -35.4278 -20.7209 -71.6015
rradius 33.5146
rwrist 9.87047
rhand -12.5792 9.3345
rfingers 7.12502
rthumb 13.4988 -20.208
lclavicle 1.42131e-014 1.59028e-014
lhumerus -34.2975 7.83974 76.9847
lradius 34.2035
lwrist -3.28791
lhand -22.3132 24.2938
lfingers 7.12502
lthumb 4.10633 54.2339
rfemur -13.1026 3.34076 4.63146
rtibia 40.5175
rfoot -18.6978 -2.50886
rtoes -3.54884
lfemur -1.4096 -5.25088 -18.9615
ltibia 16.5774
lfoot -13.9885 -8.52475
ltoes -11.2895
396
root 0.204441 17.7878 10.3063 -179.661 -2.10958 177.342
lowerback 13.3848 0.814304 -2.49516
upperback 0.185456 0.701884 1.32368
thorax -7.37633 0.416019 2.6875
lowerneck -22.2869 -3.2533 -11.3522
upperneck 29.698 -4.32242 7.86171
head 14.3527 -2.50517 4.23815
rclavicle -1.39149e-015 -3.97569e-015
rhumerus -35.5625 -20.7411 -71.7305
rradius 33.3788
rwrist 10.1923
rhand -12.3715 8.7908
rfingers 7.12502
rthumb 13.699 -20.7383
lclavicle -1.39149e-015 -3.97569e-015
lhumerus -34.3034 7.81094 76.8747
lradius 34.3961
lwrist -3.23315
lhand -21.8644 23.8908
lfingers 7.12502
lthumb 4.53973 53.8221
rfemur -13.4262 2.59009 5.63116
rtibia 41.2698
rfoot -19.5921 -1.35524
rtoes -5.79974
lfemur -1.60739 -5.22543 -18.9377
ltibia 16.9758
lfoot -14.0759 -8.41378
ltoes -11.3223
397
root 0.144649 17.7903 10.3168 -179.602 -1.96726 177.508
lowerback 13.2427 0.803861 -2.56348
upperback 0.185685 0.686578 1.39284
thorax -7.29694 0.411501 2.80309
lowerneck -22.2473 -3.28161 -11.3587
upperneck 29.6142 -4.3871 7.94447
head 14.3179 -2.51985 4.25891
rclavicle 5.86415e-015 5.56597e-015
rhumerus -35.6201 -20.727 -71.8795
rradius 33.0671
rwrist 9.90355
rhand -12.6662 9.03141
rfingers 7.12502
rthumb 13.415 -20.5167
lclavicle 5.86415e-015 5.56597e-015
lhumerus -34.2245 7.80614 76.7737
lradius 34.5128
lwrist -3.19405
lhand -21.9929 23.8945
lfingers 7.12502
lthumb 4.41566 53.8285
rfemur -13.8059 1.93101 6.58944
rtibia 42.0142
rfoot -20.3895 0.0844927
rtoes -7.57558
lfemur -1.9216 -5.27188 -18.9903
ltibia 17.4244
lfoot -14.1716 -8.21536
ltoes -11.082
